<svg xmlns="http://www.w3.org/2000/svg" viewBox="0 0 152.42 83.69"><defs><style>.cls-1,.cls-3{font-size:24.4px;}.cls-1{font-family:AktivGroteskCorp-Bold, Aktiv Grotesk Corp;font-weight:700;}.cls-2{letter-spacing:-0.09em;}.cls-3{font-family:AktivGroteskCorp-Light, Aktiv Grotesk Corp;}.cls-4{letter-spacing:-0.01em;}.cls-5{letter-spacing:-0.02em;}</style></defs><title>Ресурс 1</title><g id="Слой_2" data-name="Слой 2"><g id="Слой_2-2" data-name="Слой 2"><path d="M32.09,58.25a11.73,11.73,0,0,1-6.75-4.62,11,11,0,0,1-.75-11.25,11.16,11.16,0,0,1,6.88-5.13c4.45-1.07,6.87,1,9.62-.3C43.41,35.84,42.84,36,45,30.9c1-2.44,2-4.39,3.62-4.52,4-.33,4.85.82,8.88,1.5,2.74.45,4.7.28,8.5-.25,6.49-.91,29.55-7.56,60.5-18a5.94,5.94,0,0,1,5.25-.09c1.67.7,1.76,2.23,3.75,3.25,1.71.88,4.36.67,5.25-.41s-.23-4.07-1.75-5.75c-1.29-1.44-2.21-1.63-3-3-1.11-1.94-.62-.75-.66-1.22-.07-.72-5.56,1.06-11,2.68-1.17.35-4,1.14-4.09,1.29-1.3,2.46-13.89,6.42-57.75,16.5a3.93,3.93,0,0,1-2.5-2c-.65-1.63.91-2.79,1-5.5,0-.46.06-3.35-1.75-5-2-1.81-5.11-1.16-6-1-5.13.89-3.85,1.09-9.94,5.5a25.8,25.8,0,0,1-6.44,3.37,23.61,23.61,0,0,1-10.37.63c-3.27-.63-3.21-1.26-6.25-2s-8.62-2.13-13.5.75A14.39,14.39,0,0,0,.47,26.38C-.44,30,0,34.49,1.59,39.88A31.88,31.88,0,0,0,7.07,50.52a28.06,28.06,0,0,0,9.25,8.21c3.73,1.91,4.59,3.48,6.9,3.65C27.13,62.66,30.86,61.64,32.09,58.25Z"/><circle cx="122.12" cy="4.03" r="1.34"/><circle cx="126.43" cy="2.69" r="1.34"/><circle cx="130.93" cy="1.34" r="1.34"/><text class="cls-1" transform="translate(33.76 57.28) scale(1.01 1)">GUI<tspan class="cls-2" x="41.82" y="0">T</tspan><tspan x="54.63" y="0">AR</tspan></text><text class="cls-3" transform="translate(52.09 78.38) scale(1.01 1)"><tspan class="cls-4">S</tspan><tspan x="15.47" y="0">CHOO</tspan><tspan class="cls-5" x="86.47" y="0">L</tspan></text></g></g></svg>