<svg width="250" height="251" viewBox="0 0 250 251" fill="none" xmlns="http://www.w3.org/2000/svg">
<path fill-rule="evenodd" clip-rule="evenodd" d="M187.629 16.8777C182.793 14.0721 177.752 11.5818 172.535 9.43465L240.646 77.5451C238.499 72.328 236.011 67.2893 233.208 62.4566L187.629 16.8777ZM231.066 58.9C220.975 42.7612 207.307 29.1027 191.187 19.0214L231.066 58.9ZM158.711 4.67608C162.614 5.76684 166.44 7.04248 170.179 8.49305L241.586 79.9001C243.035 83.6372 244.31 87.4619 245.4 91.3645L158.711 4.67608ZM156.772 4.1509C153.553 3.30719 150.284 2.58876 146.971 2.00108L248.073 103.103C247.485 99.789 246.767 96.5207 245.924 93.3035L156.772 4.1509ZM136.502 0.598654C139.454 0.867792 142.377 1.23977 145.266 1.711L248.363 104.807C248.834 107.696 249.206 110.619 249.476 113.572L136.502 0.598654ZM134.957 0.467359C132.303 0.258445 129.627 0.132567 126.931 0.0922981L249.985 123.147C249.943 120.448 249.817 117.771 249.607 115.118L134.957 0.467359ZM123.47 0.0876793C124.149 0.0793734 124.827 0.0764933 125.503 0.0789986L249.999 124.575C250.009 127.08 249.946 129.568 249.811 132.038L118.043 0.269909C119.842 0.170947 121.651 0.109939 123.47 0.0876793ZM116.709 0.350337C114.358 0.504543 112.026 0.723563 109.713 1.00561L249.076 140.368C249.358 138.055 249.577 135.722 249.731 133.372L116.709 0.350337ZM101.86 2.21781C104.04 1.80988 106.24 1.45843 108.459 1.16507L248.916 141.623C248.623 143.841 248.272 146.041 247.863 148.221L101.86 2.21781ZM100.673 2.44575C98.5702 2.86047 96.4863 3.32784 94.4229 3.84643L246.234 155.657C246.753 153.594 247.22 151.51 247.635 149.408L100.673 2.44575ZM87.3574 5.84624C89.3168 5.22848 91.2971 4.65761 93.2972 4.13496L245.945 156.783C245.422 158.782 244.851 160.762 244.233 162.721L87.3574 5.84624ZM86.2863 6.18932C84.3796 6.80956 82.4932 7.47433 80.6283 8.1824L241.895 169.449C242.604 167.584 243.269 165.698 243.889 163.792L86.2863 6.18932ZM74.2082 10.8278C75.9862 10.0363 77.7862 9.28513 79.6071 8.57533L241.502 170.47C240.792 172.291 240.041 174.091 239.249 175.869L74.2082 10.8278ZM58.8138 231.135C63.9737 234.362 69.3849 237.223 75.0104 239.68L10.3946 175.065C12.8514 180.691 15.71 186.1 18.9335 191.255L58.8138 231.135ZM9.35377 172.61L77.4664 240.722C81.3194 242.308 85.2684 243.707 89.3018 244.907L5.17309 160.778C6.37259 164.812 7.76995 168.759 9.35377 172.61ZM4.60014 158.791L91.2896 245.48C94.5729 246.398 97.9103 247.185 101.296 247.835L2.2474 148.787C2.89727 152.173 3.68352 155.509 4.60014 158.791ZM1.92722 147.052L103.03 248.155C105.963 248.676 108.932 249.093 111.931 249.405L0.677478 138.151C0.989444 141.152 1.4073 144.12 1.92722 147.052ZM0.524432 136.584C0.2791 133.898 0.118551 131.187 0.0455101 128.454L121.626 250.034C118.894 249.962 116.184 249.803 113.498 249.558L0.524432 136.584ZM0.00955429 126.608C0.0111933 126.742 0.0130423 126.875 0.0151011 127.009L123.07 250.064C124.219 250.081 125.373 250.083 126.529 250.069C127.895 250.052 129.255 250.013 130.61 249.953L0.122671 119.466C0.018529 121.83 -0.0197672 124.211 0.00955429 126.608ZM0.189245 118.118C0.319178 115.745 0.515437 113.39 0.776216 111.054L139.021 249.298C136.686 249.559 134.33 249.756 131.957 249.886L0.189245 118.118ZM1.91881 103.131C1.52908 105.331 1.19698 107.55 0.924105 109.788L140.287 249.151C142.525 248.878 144.745 248.546 146.944 248.156L1.91881 103.131ZM2.13678 101.935C2.53369 99.8151 2.98418 97.7141 3.48681 95.6333L154.443 246.589C152.362 247.091 150.261 247.542 148.141 247.938L2.13678 101.935ZM5.43246 88.5137C4.82905 90.4886 4.2733 92.4841 3.76651 94.4988L155.577 246.31C157.593 245.803 159.589 245.248 161.564 244.645L5.43246 88.5137ZM5.76755 87.4346C6.37339 85.5145 7.02439 83.6142 7.71931 81.7351L168.343 242.359C166.464 243.054 164.564 243.704 162.643 244.31L5.76755 87.4346ZM10.319 75.269C9.53979 77.0602 8.80137 78.8731 8.10489 80.7064L169.372 241.974C171.206 241.277 173.019 240.539 174.81 239.76L10.319 75.269ZM10.7512 74.287C11.5317 72.5345 12.3513 70.803 13.209 69.0939L180.986 236.871C179.277 237.728 177.545 238.548 175.792 239.328L10.7512 74.287ZM13.6849 68.1555L181.924 236.395C183.602 235.536 185.257 234.64 186.889 233.708L16.3721 63.1915C15.4403 64.8236 14.5441 66.4787 13.6849 68.1555ZM16.8893 62.2944C17.8233 60.6896 18.792 59.1074 19.7945 57.5488L192.531 230.286C190.973 231.288 189.391 232.257 187.786 233.191L16.8893 62.2944ZM23.4662 52.1544C22.3955 53.6426 21.3568 55.1552 20.3511 56.6912L193.389 229.729C194.925 228.723 196.438 227.684 197.926 226.614L23.4662 52.1544ZM24.0608 51.3349C25.1358 49.8658 26.242 48.4211 27.3787 47.0016L203.078 222.701C201.659 223.837 200.214 224.944 198.745 226.019L24.0608 51.3349ZM31.5269 42.0845C30.3254 43.4368 29.153 44.8154 28.0104 46.2191L203.86 222.069C205.264 220.926 206.642 219.754 207.994 218.552L31.5269 42.0845ZM32.195 41.3384C33.4042 39.999 34.642 38.6858 35.9075 37.3998L212.678 214.171C211.393 215.436 210.08 216.674 208.74 217.884L32.195 41.3384ZM40.5196 32.9461C39.1901 34.166 37.8872 35.4142 36.6118 36.6898L213.388 213.466C214.664 212.191 215.912 210.887 217.131 209.558L40.5196 32.9461ZM41.2599 32.2722C42.6016 31.0607 43.9697 29.8778 45.3633 28.7245L221.352 204.714C220.199 206.107 219.017 207.476 217.805 208.817L41.2599 32.2722ZM50.4418 24.7374C48.9829 25.8232 47.5487 26.9401 46.14 28.087L221.99 203.937C223.137 202.528 224.253 201.093 225.339 199.635L50.4418 24.7374ZM51.2554 24.1368C52.7324 23.0558 54.2341 22.0065 55.7595 20.9897L229.086 194.317C228.07 195.842 227.02 197.344 225.939 198.821L51.2554 24.1368ZM61.3239 17.4884C59.7297 18.4339 58.1584 19.4138 56.6111 20.427L229.649 193.465C230.662 191.917 231.642 190.346 232.588 188.752L61.3239 17.4884ZM62.2147 16.965C63.835 16.0221 65.4785 15.1144 67.1442 14.2432L235.833 182.932C234.962 184.597 234.054 186.241 233.111 187.861L62.2147 16.965ZM236.315 182L68.0761 13.7609C69.7728 12.8916 71.4922 12.0599 73.2331 11.2669L238.81 176.844C238.017 178.584 237.185 180.303 236.315 182ZM54.7415 228.477L21.5903 195.326C30.4594 208.356 41.7237 219.615 54.7415 228.477Z" fill="url(#paint0_linear_66_151)"/>
<defs>
<linearGradient id="paint0_linear_66_151" x1="189.643" y1="26.5432" x2="56.7001" y2="219.028" gradientUnits="userSpaceOnUse">
<stop stop-color="#3CAE86"/>
<stop offset="0.524398" stop-color="#FFE481"/>
<stop offset="1" stop-color="#918BC0"/>
</linearGradient>
</defs>
</svg>
